# xmcd
#
# Track frame offsets:
#	150
#	15633
#	31792
#	48063
#	63570
#	76849
#	90126
#	106064
#	122143
#	138302
#	148877
#	162515
#	178219
#	191496
#	207116
#	220934
#	232052
#	246411
#
# Disc length: 3431 seconds
#
# Revision: 0
# Processed by: cddbd v1.5.2PL0 Copyright (c) Steve Scherf et al.
# Submitted via: dBpowerAMP V4.0
#
DISCID=f60d6512
DTITLE=Edvaldo Mineiro - Edvaldo Mineiro
DYEAR=1900
DGENRE=
TTITLE0=Unknown #9 - Track01
TTITLE1=Unknown #9 - Track02
TTITLE2=Unknown #9 - Track03
TTITLE3=Unknown #9 - Track04
TTITLE4=Unknown #9 - Track05
TTITLE5=Unknown #9 - Track06
TTITLE6=Unknown #9 - Track07
TTITLE7=Unknown #9 - Track08
TTITLE8=Unknown #9 - Track09
TTITLE9=Unknown #9 - Track10
TTITLE10=Unknown #9 - Track11
TTITLE11=Unknown #9 - Track12
TTITLE12=Unknown #9 - Track13
TTITLE13=Unknown #9 - Track14
TTITLE14=Unknown #9 - Track15
TTITLE15=Unknown #9 - Track16
TTITLE16=Unknown #9 - Track17
TTITLE17=Unknown #9 - Track18
EXTD=
EXTT0=
EXTT1=
EXTT2=
EXTT3=
EXTT4=
EXTT5=
EXTT6=
EXTT7=
EXTT8=
EXTT9=
EXTT10=
EXTT11=
EXTT12=
EXTT13=
EXTT14=
EXTT15=
EXTT16=
EXTT17=
PLAYORDER=
